<svg xmlns="http://www.w3.org/2000/svg" xmlns:xlink="http://www.w3.org/1999/xlink" width="30" height="30" viewBox="0 0 30 30">
  <defs>
    <linearGradient id="linear-gradient" x1="0.5" x2="0.5" y2="1" gradientUnits="objectBoundingBox">
      <stop offset="0" stop-color="#7024c4"/>
      <stop offset="0.35" stop-color="#c21975"/>
      <stop offset="0.654" stop-color="#c74c4d"/>
      <stop offset="1" stop-color="#e09b3d"/>
    </linearGradient>
  </defs>
  <g id="Instagram" transform="translate(-0.399 -1.049)">
    <rect id="Rectangle_1507" data-name="Rectangle 1507" width="30" height="30" rx="3" transform="translate(0.399 1.049)" fill="url(#linear-gradient)"/>
    <path id="Instagram-2" data-name="Instagram" d="M10.734,15.288H4.554A4.56,4.56,0,0,1,0,10.734V4.554A4.56,4.56,0,0,1,4.554,0h6.18a4.56,4.56,0,0,1,4.554,4.554v6.18A4.56,4.56,0,0,1,10.734,15.288ZM4.554,1.538A3.02,3.02,0,0,0,1.538,4.554v6.18A3.02,3.02,0,0,0,4.554,13.75h6.18a3.02,3.02,0,0,0,3.016-3.016V4.554a3.02,3.02,0,0,0-3.016-3.017ZM7.644,11.6A3.954,3.954,0,1,1,11.6,7.644,3.958,3.958,0,0,1,7.644,11.6Zm0-6.37A2.416,2.416,0,1,0,10.06,7.644,2.419,2.419,0,0,0,7.644,5.228Zm3.962-.561a.948.948,0,1,1,.948-.947A.948.948,0,0,1,11.606,4.667Z" transform="translate(7.774 8.774)" fill="#fff"/>
  </g>
</svg>
